<svg width="22" height="22" viewBox="0 0 22 22" fill="none" xmlns="http://www.w3.org/2000/svg">
<path d="M11 22C4.93366 22 0 17.065 0 10.9989C0 4.93281 4.93366 0 11 0C17.0663 0 22 4.93501 22 10.9989C22 17.0628 17.0663 22 11 22ZM11 0.817011C5.38238 0.817011 0.812475 5.38525 0.812475 10.9989C0.812475 16.6126 5.38673 21.1808 11 21.1808C16.6133 21.1808 21.1897 16.6126 21.1897 10.9989C21.1897 5.38525 16.6176 0.817011 11 0.817011Z" fill="#242748"/>
<path d="M16.6036 12.4619C16.6894 11.6706 16.874 11.4001 17.1905 11.3442L17.2169 10.9821C16.3246 10.8003 15.4167 10.709 14.5067 10.7094C12.99 10.7094 12.0888 11.2503 11.4535 11.2503C10.8183 11.2503 9.91487 10.7094 8.40039 10.7094C7.94318 10.7094 7.66622 10.7295 7.30134 10.7586C7.24639 10.924 7.18704 11.1073 7.12769 11.3107C7.38487 11.1609 7.65304 11.0648 8.30147 11.0648C10.9392 11.0648 10.5303 12.0953 10.4336 12.4909C10.3369 12.8866 10.0424 14.0042 8.2729 14.0042C7.24639 14.0042 6.8925 13.3604 6.7716 12.6384C6.7716 12.6094 6.7716 12.5803 6.75841 12.5513C6.68588 12.7748 6.61334 12.976 6.53861 13.1704C6.72544 13.7918 7.19803 14.3752 8.31246 14.3797C10.3369 14.3797 10.7435 13.0944 10.9612 12.511C11.1788 11.9276 11.1018 11.8539 11.4491 11.8405C11.7964 11.827 11.7393 11.9388 11.9459 12.4954C12.1525 13.052 12.5614 14.373 14.5836 14.373C16.3003 14.3685 16.5355 13.1593 16.6036 12.4619ZM14.6254 13.9952C12.8537 13.9952 12.5702 12.8776 12.4734 12.4797C12.3767 12.0819 11.8602 11.0469 14.5001 11.0469C16.5201 11.0469 16.3377 11.9768 16.2585 12.558C16.2232 12.9663 16.033 13.3447 15.7282 13.6129C15.4234 13.8812 15.0278 14.0183 14.6254 13.9952Z" fill="#242748"/>
<path d="M6.25945 13.9193C5.81983 14.7955 5.58903 14.9519 5.19338 15.1956C5.20314 15.3855 5.13974 15.5718 5.01661 15.715C4.89349 15.8581 4.72035 15.9468 4.53395 15.9623C4.21083 16.0003 3.97783 15.7633 3.81737 15.6471C3.79957 15.6358 3.77901 15.6298 3.75802 15.6298C3.73704 15.6298 3.71648 15.6358 3.69868 15.6471C3.68331 15.6631 3.6735 15.6838 3.67072 15.706C3.66795 15.7281 3.67236 15.7506 3.68329 15.77C3.74633 15.8937 3.82463 16.0086 3.91629 16.112C4.04595 16.2647 4.1936 16.4006 4.3559 16.5166C4.63267 16.7199 4.96879 16.8223 5.30988 16.8072C5.53368 16.7984 5.75262 16.7381 5.95021 16.6309C6.14781 16.5236 6.31892 16.3722 6.45068 16.188C6.64631 15.92 6.74492 15.5916 6.72984 15.2582C6.71225 14.8894 6.60894 14.5541 6.25945 13.9193Z" fill="#242748"/>
<path d="M12.4273 6.48701C12.1349 5.94831 11.4381 5.38949 10.3237 5.28444C9.90041 5.26772 9.4767 5.30376 9.06201 5.39173C8.27335 5.55399 7.53951 5.92134 6.93206 6.45795C5.88048 7.42907 5.24192 8.7783 5.15161 10.2199C5.06149 11.3375 5.20437 12.6161 4.57132 13.5728C4.35151 13.9237 4.07235 14.221 3.16894 14.1875C3.14182 14.1804 3.11356 14.1792 3.08594 14.1838C3.05832 14.1884 3.03194 14.1988 3.00848 14.2143C2.99912 14.24 2.99747 14.268 3.00373 14.2946C3.00999 14.3213 3.02388 14.3454 3.04365 14.3641C3.64372 15.1665 5.48352 16.2663 6.60675 11.9388C6.97602 10.5194 7.04636 10.3741 7.44861 9.92707C7.88823 9.42861 9.01145 9.17826 9.44667 9.10003C9.97422 9.00391 10.9414 8.9525 11.625 8.65298C11.8294 8.5704 12.0155 8.44694 12.1722 8.2899C12.3289 8.13287 12.453 7.94545 12.5372 7.73875C12.6019 7.5332 12.6255 7.31656 12.6066 7.10159C12.5877 6.88662 12.5268 6.67766 12.4273 6.48701Z" fill="#242748"/>
<path d="M18.949 15.2939C18.9315 15.2941 18.9143 15.2986 18.8989 15.3072C18.8836 15.3158 18.8706 15.3281 18.8611 15.3431C18.7543 15.477 18.615 15.5802 18.4569 15.6426C18.2988 15.7049 18.1275 15.7242 17.9599 15.6985C17.7779 15.6623 17.6104 15.5723 17.4783 15.44C17.3462 15.3076 17.2553 15.1387 17.2169 14.9542C17.1048 13.9885 17.5334 13.1928 17.9225 12.2205C18.0843 11.7852 18.2086 11.3364 18.294 10.8793C18.6852 8.89215 17.6126 6.79324 16.896 5.83431C14.9177 3.19894 11.4118 3.03353 10.3941 3H10.3325C10.0819 3.03576 10.5413 3.21011 10.7919 3.42693C10.9242 3.5228 11.0357 3.64529 11.1194 3.78681C11.2139 3.9634 11.2359 4.15787 11.0667 4.06175C10.7325 3.87248 10.3651 3.75173 9.98521 3.70634C9.49136 3.63479 8.98927 3.64687 8.4993 3.74211C7.98986 3.81756 7.49909 3.99049 7.05296 4.25175C6.36363 4.59637 5.76184 5.09817 5.29449 5.71808C4.45213 6.81592 4.03806 8.19138 4.1317 9.58061C4.20863 10.6714 4.44163 11.3912 4.75815 12.6094C4.81691 12.0564 4.84113 11.5002 4.83069 10.9441C4.83069 10.6178 4.84388 10.3093 4.86806 10.0232C5.00654 8.32439 5.61541 7.22241 6.39353 6.37748C6.83813 5.91027 7.37017 5.53826 7.95831 5.28336C8.54646 5.02846 9.17882 4.89583 9.81815 4.89327C10.1871 4.87829 10.5565 4.91134 10.9172 4.99162C11.6887 5.21514 13.1153 5.90137 12.9328 7.56664C12.9069 7.67908 12.917 7.79702 12.9617 7.90321C13.0064 8.00939 13.0833 8.09824 13.1812 8.15675C13.9571 8.70886 15.775 8.62839 16.3047 10.3495L16.3289 10.4233C16.3465 10.4814 16.3443 10.468 16.3597 10.5217C16.7013 10.5681 17.0403 10.6331 17.3752 10.7161L17.5554 10.7564L17.5422 10.9799L17.5159 11.342V11.5163L17.3532 11.5543C17.2411 11.5767 17.0213 11.6952 16.9422 12.4797C16.919 12.9576 16.7817 13.4226 16.5421 13.8343C16.4224 14.0304 16.2531 14.1902 16.0519 14.297C15.7222 16.0852 16.9773 16.6709 17.7906 16.5546C18.0957 16.5254 18.3818 16.3912 18.6016 16.1741C18.8215 15.9571 18.9619 15.6702 18.9996 15.361C19.0014 15.3453 18.9972 15.3295 18.9877 15.317C18.9783 15.3044 18.9644 15.2962 18.949 15.2939Z" fill="#242748"/>
<path d="M9.78958 12.4864C9.89728 12.6317 10.0885 12.4328 9.98081 12.2897C9.26423 11.3375 8.01572 11.6661 7.2354 12.2115C7.01559 12.3613 7.13429 12.6206 7.36948 12.5244L7.42663 12.4954C7.64644 12.3702 7.88164 12.2182 8.13222 12.102C8.08736 12.1856 8.06393 12.2794 8.06408 12.3747C8.06408 12.5365 8.1273 12.6917 8.23984 12.8062C8.35237 12.9206 8.50501 12.9849 8.66416 12.9849C8.82331 12.9849 8.97594 12.9206 9.08848 12.8062C9.20101 12.6917 9.26423 12.5365 9.26423 12.3747C9.26422 12.2947 9.24779 12.2157 9.21599 12.1425C9.1842 12.0694 9.13774 12.0038 9.07959 11.95C9.37207 12.036 9.62418 12.2265 9.78958 12.4864ZM8.63998 12.5088C8.61236 12.5079 8.5856 12.4988 8.56305 12.4825C8.54051 12.4663 8.52316 12.4437 8.51318 12.4175C8.50321 12.3913 8.50104 12.3626 8.50696 12.3352C8.51287 12.3077 8.5266 12.2827 8.54644 12.2631C8.56628 12.2436 8.59134 12.2304 8.61851 12.2252C8.64567 12.22 8.67372 12.2231 8.69917 12.2341C8.72463 12.245 8.74634 12.2633 8.76161 12.2868C8.77689 12.3102 8.78504 12.3376 8.78505 12.3657C8.78392 12.4031 8.76867 12.4386 8.74247 12.4648C8.71627 12.4911 8.68114 12.506 8.64437 12.5066L8.63998 12.5088Z" fill="#242748"/>
<path d="M15.6673 12.2137C14.8847 11.6661 13.634 11.3487 12.9153 12.3009C12.8054 12.444 13.0186 12.6295 13.1241 12.4797C13.2863 12.2135 13.5428 12.0206 13.8407 11.941C13.7753 11.995 13.7226 12.0632 13.6865 12.1405C13.6503 12.2179 13.6317 12.3025 13.6318 12.3881C13.6318 12.5499 13.6951 12.7052 13.8076 12.8196C13.9201 12.934 14.0728 12.9983 14.2319 12.9983C14.3911 12.9983 14.5437 12.934 14.6562 12.8196C14.7688 12.7052 14.832 12.5499 14.832 12.3881C14.8319 12.2902 14.8069 12.1939 14.7595 12.1087C15.01 12.2294 15.2518 12.3836 15.4694 12.5088L15.5266 12.5379C15.7596 12.634 15.8849 12.3657 15.6673 12.2137ZM14.2649 12.5155C14.2359 12.5164 14.2074 12.5084 14.1829 12.4927C14.1584 12.4769 14.1391 12.4541 14.1275 12.4271C14.116 12.4001 14.1126 12.3702 14.1179 12.3412C14.1231 12.3122 14.1368 12.2855 14.1571 12.2645C14.1775 12.2435 14.2035 12.2292 14.2319 12.2234C14.2603 12.2176 14.2898 12.2206 14.3165 12.2319C14.3432 12.2433 14.366 12.2626 14.3819 12.2872C14.3977 12.3118 14.406 12.3408 14.4056 12.3702C14.4056 12.4086 14.3909 12.4454 14.3646 12.473C14.3384 12.5005 14.3026 12.5166 14.2649 12.5177V12.5155Z" fill="#242748"/>
<path d="M12.5218 16.1679C12.6537 16.0316 12.491 15.8729 12.3503 15.9846C11.6909 16.5032 11.3656 16.4831 10.6358 16.0584C10.4688 15.9623 10.3391 16.1523 10.493 16.2596C11.2007 16.8363 11.8668 16.8407 12.5218 16.1679Z" fill="#242748"/>
<path d="M12.7636 18.173C12.4229 18.3182 11.9371 18.5507 11.4953 18.5529C11.0535 18.5552 10.5655 18.316 10.2292 18.173C10.0995 18.1171 10.0753 18.2467 10.1391 18.2981C10.416 18.4948 11.0381 19 11.4931 19C11.9481 19 12.5921 18.4971 12.8537 18.2981C12.9306 18.2378 12.8911 18.1171 12.7636 18.173Z" fill="#242748"/>
<path d="M13.3307 17.5784C13.2066 17.6292 13.0731 17.6521 12.9394 17.6454C12.6165 17.6454 12.2955 17.5949 11.9877 17.4957C11.8558 17.4621 11.636 17.6588 11.5107 17.6588C11.3854 17.6588 11.1634 17.4621 11.0293 17.4957C10.7179 17.596 10.3931 17.6465 10.0665 17.6454C9.93288 17.6522 9.79938 17.6293 9.67528 17.5784C9.57636 17.5404 9.51921 17.632 9.58076 17.6857C9.73823 17.8031 9.91554 17.8903 10.1039 17.9427C10.5579 18.0722 11.0261 18.1428 11.4975 18.1528C11.9746 18.1418 12.4485 18.0712 12.9087 17.9427C13.0978 17.8905 13.2759 17.8034 13.434 17.6857C13.4846 17.632 13.4296 17.5404 13.3307 17.5784Z" fill="#242748"/>
</svg>
